<svg xmlns="http://www.w3.org/2000/svg" viewBox="0 0 32 32" shape-rendering="crispEdges"><rect width="32" height="32" rx="4" fill="rgb(36,72,196)"/><path transform="translate(6 12)" fill="rgb(255,255,255)" d="M0 0h1v1h-1zM1 0h1v1h-1zM2 0h1v1h-1zM3 0h1v1h-1zM4 0h1v1h-1zM5 0h1v1h-1zM8 0h1v1h-1zM9 0h1v1h-1zM10 0h1v1h-1zM11 0h1v1h-1zM15 0h1v1h-1zM16 0h1v1h-1zM17 0h1v1h-1zM18 0h1v1h-1zM4 1h1v1h-1zM5 1h1v1h-1zM7 1h1v1h-1zM8 1h1v1h-1zM11 1h1v1h-1zM12 1h1v1h-1zM14 1h1v1h-1zM15 1h1v1h-1zM18 1h1v1h-1zM19 1h1v1h-1zM3 2h1v1h-1zM4 2h1v1h-1zM7 2h1v1h-1zM8 2h1v1h-1zM11 2h1v1h-1zM12 2h1v1h-1zM14 2h1v1h-1zM15 2h1v1h-1zM18 2h1v1h-1zM19 2h1v1h-1zM2 3h1v1h-1zM3 3h1v1h-1zM8 3h1v1h-1zM9 3h1v1h-1zM10 3h1v1h-1zM11 3h1v1h-1zM14 3h1v1h-1zM15 3h1v1h-1zM18 3h1v1h-1zM19 3h1v1h-1zM1 4h1v1h-1zM2 4h1v1h-1zM7 4h1v1h-1zM8 4h1v1h-1zM11 4h1v1h-1zM12 4h1v1h-1zM14 4h1v1h-1zM15 4h1v1h-1zM18 4h1v1h-1zM19 4h1v1h-1zM0 5h1v1h-1zM1 5h1v1h-1zM7 5h1v1h-1zM8 5h1v1h-1zM11 5h1v1h-1zM12 5h1v1h-1zM14 5h1v1h-1zM15 5h1v1h-1zM18 5h1v1h-1zM19 5h1v1h-1zM0 6h1v1h-1zM1 6h1v1h-1zM2 6h1v1h-1zM3 6h1v1h-1zM4 6h1v1h-1zM5 6h1v1h-1zM8 6h1v1h-1zM9 6h1v1h-1zM10 6h1v1h-1zM11 6h1v1h-1zM15 6h1v1h-1zM16 6h1v1h-1zM17 6h1v1h-1zM18 6h1v1h-1z"/></svg>
